<svg width="24" height="24" viewBox="0 0 24 24" fill="none" xmlns="http://www.w3.org/2000/svg">
<path d="M16.2499 22.5V18.635C16.2876 18.1586 16.2232 17.6797 16.0612 17.2301C15.8991 16.7806 15.643 16.3708 15.3099 16.028C18.4499 15.678 21.75 14.49 21.75 9.03802C21.7497 7.64303 21.2126 6.30165 20.25 5.29202C20.7057 4.07222 20.6735 2.72365 20.16 1.52702C20.16 1.52702 18.9799 1.17702 16.2499 3.00502C13.9578 2.38466 11.542 2.38466 9.24995 3.00502C6.51995 1.17702 5.33995 1.52702 5.33995 1.52702C4.82643 2.72365 4.79419 4.07222 5.24995 5.29202C4.28038 6.3089 3.74272 7.66201 3.74995 9.06702C3.74995 14.48 7.04995 15.669 10.1899 16.058C9.86113 16.3975 9.60749 16.8024 9.44553 17.2464C9.28357 17.6904 9.21693 18.1636 9.24995 18.635V22.5" stroke="#0077B6" stroke-width="2" stroke-linecap="round" stroke-linejoin="round"/>
<path d="M9.25 19.503C4.25 21.001 4.25 17.007 2.25 16.507" stroke="#0077B6" stroke-width="2" stroke-linecap="round" stroke-linejoin="round"/>
</svg>
